<svg xmlns="http://www.w3.org/2000/svg" width="512" height="512" viewBox="0 0 512 512">
  <rect x="24" y="24" width="464" height="464" rx="96" fill="#ffffff"/>

  <g fill="#980000" transform="translate(-92 -31) scale(1.2)">
    <path d="M266.6 71.4c-17.1 15.5-31.1 28.7-31.3 29.3-.2.5 1.9 3.1 4.6 5.7l5 4.6 14.8-10.7c8.2-5.8 20.3-14.7 27.1-19.5l12.2-8.9 27.4 19.9 27.4 20 4.6-4.7c2.5-2.6 4.6-4.9 4.6-5.3 0-1.2-63-58.8-64.2-58.7-.7 0-15.2 12.8-32.2 28.3"/>
    <path d="M298.5 103.1c-1 3-9.9 10.3-17.2 14.2-3.8 2-11.6 5.4-17.3 7.7l-10.4 4-3-2.8c-5.8-5.4-15.3-9.5-26.8-11.6l-3.8-.7-4.6 7.2c-5.5 8.4-15.4 29.8-25.3 54.1-10.3 25.6-11.1 27.8-10.5 27.8.2 0 2.7-2 5.3-4.5l4.8-4.5.7 6.9c2.9 29.4 27.5 82 70.9 151.6 12.5 20 36 55.5 36.8 55.5 1.2 0 49.6-70.1 60.1-87 11.6-18.6 28.8-52.3 37.3-73 7.8-18.9 13.5-41 13.5-52.1v-3.8l5.6 3c3.1 1.6 5.8 2.8 6 2.6.6-.6-36.1-72.2-40-78-3.8-5.7-4-5.8-7.5-5.2-5.1.9-16.4 6.4-24.4 11.9-6.6 4.5-7 4.7-10.5 3.5-10.3-3.3-19.7-9.3-29.4-19-8-7.9-9.9-9.3-10.3-7.8m10.9 20.5c6 1.5 18.9 7.1 23.3 10 2.2 1.4 1.9 1.8-15.8 18l-18 16.6-16.8-16.3c-19.3-18.8-18.8-17-5.8-23.5 12.5-6.4 21.9-7.7 33.1-4.8m67.3 14.2c3.8 4.5 9.1 15.3 11.2 23.1 14.2 51.3-14 121.9-79.5 199.4l-8.1 9.6-3-3.2c-7.4-7.9-25-31.3-37-49.2-32.7-49-50.3-91.9-52-126.7-.9-18.1 2.3-33.3 9.9-46.1 5.2-9 6.2-9.7 13.9-9.7 3.7 0 8 .5 9.4 1l2.6 1-3.5 4.1c-11 13-17 37.4-14.6 60.1 4.2 39.7 25.4 83.1 65.3 133.6 4.9 6.1 9.2 11.2 9.5 11.2.4 0 4.7-6.2 9.7-13.8 31.4-48.1 48.9-83.5 57.2-115.1 3-11.6 3.6-15.8 4-28.1.5-12.6.3-15.7-1.6-23-2.6-10.5-6.8-19.3-12.1-25.3l-4-4.6 5.2-.5c2.9-.3 6.7-.7 8.3-.9 4.6-.6 6.8.2 9.2 3.1m-30.6 6.4c7.7 10.7 11.8 22.8 12.6 37.8 1.6 31.5-14.7 70.2-48.7 115.5-13.9 18.6-12.5 17.8-19.6 9.8-27.1-30.7-43.7-61.9-49-92.6-2.2-12.5-1.5-35.1 1.4-45.9 2.2-8.2 7.4-21.3 9.6-24.4 1.4-1.8 1.5-1.8 5.3 0 13.6 6.4 32.6 22.7 38.3 32.8l3.2 5.8 3.9-5.9c5.2-7.7 17.4-21.6 23.2-26.4 5.3-4.3 14.8-10.7 15.9-10.7.4 0 2.2 1.9 3.9 4.2"/>
  </g>
</svg>